<svg width="16" height="16" viewBox="0 0 16 16" fill="none" xmlns="http://www.w3.org/2000/svg">
<g clip-path="url(#clip0_2281_629)">
<path d="M8 16C12.4183 16 16 12.4183 16 8C16 3.58172 12.4183 0 8 0C3.58172 0 0 3.58172 0 8C0 12.4183 3.58172 16 8 16Z" fill="#DDDDDD"/>
<path d="M6.98267 10.4263V10.2653C6.98582 9.71287 7.03475 9.27253 7.12945 8.94425C7.2273 8.61597 7.36935 8.35081 7.55558 8.14879C7.74182 7.94677 7.96594 7.76369 8.22793 7.59955C8.42364 7.47329 8.59883 7.34229 8.7535 7.20656C8.90817 7.07083 9.03128 6.92089 9.12282 6.75675C9.21436 6.58945 9.26013 6.40321 9.26013 6.19804C9.26013 5.98023 9.20805 5.78926 9.10388 5.62512C8.99971 5.46098 8.85924 5.33472 8.68248 5.24633C8.50887 5.15795 8.31632 5.11376 8.10483 5.11376C7.89965 5.11376 7.70552 5.15953 7.52244 5.25107C7.33936 5.33945 7.18942 5.47203 7.07263 5.64879C6.95584 5.82241 6.8927 6.03863 6.88323 6.29747H4.95142C4.9672 5.66616 5.11871 5.14532 5.40596 4.73497C5.69321 4.32146 6.07358 4.01369 6.54706 3.81167C7.02054 3.6065 7.54296 3.50391 8.11429 3.50391C8.74245 3.50391 9.29801 3.60807 9.78096 3.81641C10.2639 4.02158 10.6427 4.31988 10.9173 4.71129C11.1919 5.10271 11.3293 5.57461 11.3293 6.12701C11.3293 6.49633 11.2677 6.82462 11.1446 7.11186C11.0246 7.39595 10.8558 7.64848 10.638 7.86944C10.4202 8.08724 10.1629 8.28453 9.86619 8.46129C9.61682 8.60965 9.41164 8.76433 9.25066 8.92531C9.09283 9.08629 8.97446 9.27253 8.89555 9.48402C8.81979 9.69551 8.78033 9.95593 8.77717 10.2653V10.4263H6.98267ZM7.92017 13.4566C7.60451 13.4566 7.33462 13.3461 7.11051 13.1251C6.88955 12.901 6.78065 12.6327 6.7838 12.3202C6.78065 12.0109 6.88955 11.7457 7.11051 11.5248C7.33462 11.3038 7.60451 11.1933 7.92017 11.1933C8.22004 11.1933 8.48361 11.3038 8.71089 11.5248C8.93816 11.7457 9.05337 12.0109 9.05653 12.3202C9.05337 12.5285 8.99813 12.7195 8.89081 12.8931C8.78664 13.0636 8.64933 13.2009 8.47888 13.3051C8.30842 13.4061 8.12219 13.4566 7.92017 13.4566Z" fill="black" fill-opacity="0.6"/>
</g>
<defs>
<clipPath id="clip0_2281_629">
<rect width="16" height="16" fill="white"/>
</clipPath>
</defs>
</svg>
